{
  "accessors": [
    {
      "bufferView": 2,
      "componentType": 5126,
      "count": 65532,
      "max": [
        590.404296875,
        371.22943115234375,
        265.9277648925781
      ],
      "min": [
        -348.0396728515625,
        -99.4823989868164,
        -289.9700927734375
      ],
      "type": "VEC3"
    },
    {
      "bufferView": 2,
      "byteOffset": 786384,
      "componentType": 5126,
      "count": 65532,
      "max": [
        0.9955848455429077,
        0.9999986290931702,
        0.9999517798423767
      ],
      "min": [
        -0.999991774559021,
        -0.9996664524078369,
        -0.9982026219367981
      ],
      "type": "VEC3"
    },
    {
      "bufferView": 1,
      "componentType": 5126,
      "count": 65532,
      "max": [
        0.9995787143707275,
        0.9995899200439453
      ],
      "min": [
        0.0004025837406516075,
        0.0005260705947875977
      ],
      "type": "VEC2"
    },
    {
      "bufferView": 0,
      "componentType": 5125,
      "count": 320706,
      "type": "SCALAR"
    },
    {
      "bufferView": 2,
      "byteOffset": 1572768,
      "componentType": 5126,
      "count": 46381,
      "max": [
        651.9603271484375,
        370.55108642578125,
        260.8484191894531
      ],
      "min": [
        -347.9145202636719,
        -101.09584045410156,
        -347.5372009277344
      ],
      "type": "VEC3"
    },
    {
      "bufferView": 2,
      "byteOffset": 2129340,
      "componentType": 5126,
      "count": 46381,
      "max": [
        0.9996245503425598,
        0.999993085861206,
        0.9999994039535522
      ],
      "min": [
        -0.999991774559021,
        -0.9997766613960266,
        -0.9982680678367615
      ],
      "type": "VEC3"
    },
    {
      "bufferView": 1,
      "byteOffset": 524256,
      "componentType": 5126,
      "count": 46381,
      "max": [
        0.9995970129966736,
        0.9994387030601501
      ],
      "min": [
        0.00041906407568603754,
        0.00039517879486083984
      ],
      "type": "VEC2"
    },
    {
      "bufferView": 0,
      "byteOffset": 1282824,
      "componentType": 5125,
      "count": 145533,
      "type": "SCALAR"
    },
    {
      "bufferView": 2,
      "byteOffset": 2685912,
      "componentType": 5126,
      "count": 65532,
      "max": [
        556.7449340820313,
        373.2826843261719,
        243.90879821777344
      ],
      "min": [
        -348.0396728515625,
        -97.37500762939453,
        -230.9219970703125
      ],
      "type": "VEC3"
    },
    {
      "bufferView": 2,
      "byteOffset": 3472296,
      "componentType": 5126,
      "count": 65532,
      "max": [
        0.9853916168212891,
        0.9999990463256836,
        0.9999679327011108
      ],
      "min": [
        -0.9999647736549377,
        -0.9997850656509399,
        -0.9999094605445862
      ],
      "type": "VEC3"
    },
    {
      "bufferView": 1,
      "byteOffset": 895304,
      "componentType": 5126,
      "count": 65532,
      "max": [
        1.977097988128662,
        0.9995928406715393
      ],
      "min": [
        1.000409722328186,
        0.005370080471038818
      ],
      "type": "VEC2"
    },
    {
      "bufferView": 0,
      "byteOffset": 1864956,
      "componentType": 5125,
      "count": 327270,
      "type": "SCALAR"
    },
    {
      "bufferView": 2,
      "byteOffset": 4258680,
      "componentType": 5126,
      "count": 31683,
      "max": [
        648.1061401367188,
        373.0013427734375,
        237.89813232421875
      ],
      "min": [
        -347.9145202636719,
        -99.68839263916016,
        -318.7260437011719
      ],
      "type": "VEC3"
    },
    {
      "bufferView": 2,
      "byteOffset": 4638876,
      "componentType": 5126,
      "count": 31683,
      "max": [
        0.9996245503425598,
        0.9999990463256836,
        0.9999994039535522
      ],
      "min": [
        -0.9999915957450867,
        -0.99993896484375,
        -0.9986945390701294
      ],
      "type": "VEC3"
    },
    {
      "bufferView": 1,
      "byteOffset": 1419560,
      "componentType": 5126,
      "count": 31683,
      "max": [
        1.991309404373169,
        0.994891345500946
      ],
      "min": [
        1.0007885694503784,
        0.005177319049835205
      ],
      "type": "VEC2"
    },
    {
      "bufferView": 0,
      "byteOffset": 3174036,
      "componentType": 5125,
      "count": 104484,
      "type": "SCALAR"
    },
    {
      "bufferView": 2,
      "byteOffset": 5019072,
      "componentType": 5126,
      "count": 65532,
      "max": [
        488.5567626953125,
        365.9169921875,
        241.17245483398438
      ],
      "min": [
        -348.0396728515625,
        -92.32413482666016,
        -235.37863159179688
      ],
      "type": "VEC3"
    },
    {
      "bufferView": 2,
      "byteOffset": 5805456,
      "componentType": 5126,
      "count": 65532,
      "max": [
        0.9996791481971741,
        0.9999995231628418,
        0.9999936819076538
      ],
      "min": [
        -0.9999169111251831,
        -0.9999362826347351,
        -0.9919721484184265
      ],
      "type": "VEC3"
    },
    {
      "bufferView": 1,
      "byteOffset": 1673024,
      "componentType": 5126,
      "count": 65532,
      "max": [
        2.777892827987671,
        0.9995020627975464
      ],
      "min": [
        2.000576972961426,
        0.17394745349884033
      ],
      "type": "VEC2"
    },
    {
      "bufferView": 0,
      "byteOffset": 3591972,
      "componentType": 5125,
      "count": 333579,
      "type": "SCALAR"
    },
    {
      "bufferView": 2,
      "byteOffset": 6591840,
      "componentType": 5126,
      "count": 23696,
      "max": [
        605.0730590820313,
        374.0235595703125,
        244.99649047851563
      ],
      "min": [
        -347.74078369140625,
        -91.90113830566406,
        -310.9092102050781
      ],
      "type": "VEC3"
    },
    {
      "bufferView": 2,
      "byteOffset": 6876192,
      "componentType": 5126,
      "count": 23696,
      "max": [
        0.9999421834945679,
        0.9999921917915344,
        0.9999936819076538
      ],
      "min": [
        -0.9998014569282532,
        -0.9999499917030334,
        -0.9986945390701294
      ],
      "type": "VEC3"
    },
    {
      "bufferView": 1,
      "byteOffset": 2197280,
      "componentType": 5126,
      "count": 23696,
      "max": [
        2.777892827987671,
        0.9995296597480774
      ],
      "min": [
        2.000504970550537,
        0.1751275658607483
      ],
      "type": "VEC2"
    },
    {
      "bufferView": 0,
      "byteOffset": 4926288,
      "componentType": 5125,
      "count": 75243,
      "type": "SCALAR"
    },
    {
      "bufferView": 2,
      "byteOffset": 7160544,
      "componentType": 5126,
      "count": 65532,
      "max": [
        437.70623779296875,
        329.1189270019531,
        265.9277648925781
      ],
      "min": [
        -347.0030212402344,
        -92.75443267822266,
        -109.93807983398438
      ],
      "type": "VEC3"
    },
    {
      "bufferView": 2,
      "byteOffset": 7946928,
      "componentType": 5126,
      "count": 65532,
      "max": [
        0.9873604774475098,
        0.999999463558197,
        0.999957799911499
      ],
      "min": [
        -0.9999750852584839,
        -0.9955899715423584,
        -0.9994491338729858
      ],
      "type": "VEC3"
    },
    {
      "bufferView": 1,
      "byteOffset": 2386848,
      "componentType": 5126,
      "count": 65532,
      "max": [
        3.949631929397583,
        0.9995477795600891
      ],
      "min": [
        3.000408172607422,
        0.054750919342041016
      ],
      "type": "VEC2"
    },
    {
      "bufferView": 0,
      "byteOffset": 5227260,
      "componentType": 5125,
      "count": 332625,
      "type": "SCALAR"
    },
    {
      "bufferView": 2,
      "byteOffset": 8733312,
      "componentType": 5126,
      "count": 65532,
      "max": [
        563.3797607421875,
        372.9189758300781,
        283.84332275390625
      ],
      "min": [
        -346.9115905761719,
        -92.7051773071289,
        -259.266845703125
      ],
      "type": "VEC3"
    },
    {
      "bufferView": 2,
      "byteOffset": 9519696,
      "componentType": 5126,
      "count": 65532,
      "max": [
        0.9993228316307068,
        0.9999994039535522,
        0.9999967813491821
      ],
      "min": [
        -0.9999982714653015,
        -0.9999417066574097,
        -0.9955941438674927
      ],
      "type": "VEC3"
    },
    {
      "bufferView": 1,
      "byteOffset": 2911104,
      "componentType": 5126,
      "count": 65532,
      "max": [
        3.9497885704040527,
        0.9996074438095093
      ],
      "min": [
        3.0005412101745605,
        0.054774343967437744
      ],
      "type": "VEC2"
    },
    {
      "bufferView": 0,
      "byteOffset": 6557760,
      "componentType": 5125,
      "count": 307437,
      "type": "SCALAR"
    },
    {
      "bufferView": 2,
      "byteOffset": 10306080,
      "componentType": 5126,
      "count": 22113,
      "max": [
        564.2454223632813,
        371.7374572753906,
        289.0716857910156
      ],
      "min": [
        -347.74078369140625,
        -93.35404205322266,
        -251.53839111328125
      ],
      "type": "VEC3"
    },
    {
      "bufferView": 2,
      "byteOffset": 10571436,
      "componentType": 5126,
      "count": 22113,
      "max": [
        0.9999125599861145,
        0.9999953508377075,
        0.9999901056289673
      ],
      "min": [
        -0.9998519420623779,
        -0.9998312592506409,
        -0.9989379644393921
      ],
      "type": "VEC3"
    },
    {
      "bufferView": 1,
      "byteOffset": 3435360,
      "componentType": 5126,
      "count": 22113,
      "max": [
        3.9494693279266357,
        0.9995733499526978
      ],
      "min": [
        3.0004220008850098,
        0.05515432357788086
      ],
      "type": "VEC2"
    },
    {
      "bufferView": 0,
      "byteOffset": 7787508,
      "componentType": 5125,
      "count": 55407,
      "type": "SCALAR"
    }
  ],
  "asset": {
    "extras": {
      "author": "b_nealie (https://sketchfab.com/b_nealie)",
      "license": "CC-BY-4.0 (http://creativecommons.org/licenses/by/4.0/)",
      "source": "https://sketchfab.com/3d-models/sea-cliffs-2-55c43cf683b14e7792e39dbbf5d86e49",
      "title": "Sea cliffs 2"
    },
    "generator": "Sketchfab-12.68.0",
    "version": "2.0"
  },
  "bufferViews": [
    {
      "buffer": 0,
      "byteLength": 8009136,
      "name": "floatBufferViews",
      "target": 34963
    },
    {
      "buffer": 0,
      "byteLength": 3612264,
      "byteOffset": 8009136,
      "byteStride": 8,
      "name": "floatBufferViews",
      "target": 34962
    },
    {
      "buffer": 0,
      "byteLength": 10836792,
      "byteOffset": 11621400,
      "byteStride": 12,
      "name": "floatBufferViews",
      "target": 34962
    }
  ],
  "buffers": [
    {
      "byteLength": 22458192,
      "uri": "scene.bin"
    }
  ],
  "extensionsUsed": [
    "KHR_materials_unlit"
  ],
  "images": [
    {
      "uri": "textures/Material0_baseColor.jpeg"
    },
    {
      "uri": "textures/Material1_baseColor.jpeg"
    },
    {
      "uri": "textures/Material2_baseColor.jpeg"
    },
    {
      "uri": "textures/Material3_baseColor.jpeg"
    }
  ],
  "materials": [
    {
      "doubleSided": true,
      "extensions": {
        "KHR_materials_unlit": {}
      },
      "name": "Material0",
      "pbrMetallicRoughness": {
        "baseColorTexture": {
          "index": 0
        },
        "metallicFactor": 0.0
      }
    },
    {
      "doubleSided": true,
      "extensions": {
        "KHR_materials_unlit": {}
      },
      "name": "Material1",
      "pbrMetallicRoughness": {
        "baseColorTexture": {
          "index": 1
        },
        "metallicFactor": 0.0
      }
    },
    {
      "doubleSided": true,
      "extensions": {
        "KHR_materials_unlit": {}
      },
      "name": "Material2",
      "pbrMetallicRoughness": {
        "baseColorTexture": {
          "index": 2
        },
        "metallicFactor": 0.0
      }
    },
    {
      "doubleSided": true,
      "extensions": {
        "KHR_materials_unlit": {}
      },
      "name": "Material3",
      "pbrMetallicRoughness": {
        "baseColorTexture": {
          "index": 3
        },
        "metallicFactor": 0.0
      }
    }
  ],
  "meshes": [
    {
      "name": "Stereo textured mesh_Material0_0",
      "primitives": [
        {
          "attributes": {
            "NORMAL": 1,
            "POSITION": 0,
            "TEXCOORD_0": 2
          },
          "indices": 3,
          "material": 0,
          "mode": 4
        }
      ]
    },
    {
      "name": "Stereo textured mesh_Material0_0",
      "primitives": [
        {
          "attributes": {
            "NORMAL": 5,
            "POSITION": 4,
            "TEXCOORD_0": 6
          },
          "indices": 7,
          "material": 0,
          "mode": 4
        }
      ]
    },
    {
      "name": "Stereo textured mesh_Material1_0",
      "primitives": [
        {
          "attributes": {
            "NORMAL": 9,
            "POSITION": 8,
            "TEXCOORD_0": 10
          },
          "indices": 11,
          "material": 1,
          "mode": 4
        }
      ]
    },
    {
      "name": "Stereo textured mesh_Material1_0",
      "primitives": [
        {
          "attributes": {
            "NORMAL": 13,
            "POSITION": 12,
            "TEXCOORD_0": 14
          },
          "indices": 15,
          "material": 1,
          "mode": 4
        }
      ]
    },
    {
      "name": "Stereo textured mesh_Material2_0",
      "primitives": [
        {
          "attributes": {
            "NORMAL": 17,
            "POSITION": 16,
            "TEXCOORD_0": 18
          },
          "indices": 19,
          "material": 2,
          "mode": 4
        }
      ]
    },
    {
      "name": "Stereo textured mesh_Material2_0",
      "primitives": [
        {
          "attributes": {
            "NORMAL": 21,
            "POSITION": 20,
            "TEXCOORD_0": 22
          },
          "indices": 23,
          "material": 2,
          "mode": 4
        }
      ]
    },
    {
      "name": "Stereo textured mesh_Material3_0",
      "primitives": [
        {
          "attributes": {
            "NORMAL": 25,
            "POSITION": 24,
            "TEXCOORD_0": 26
          },
          "indices": 27,
          "material": 3,
          "mode": 4
        }
      ]
    },
    {
      "name": "Stereo textured mesh_Material3_0",
      "primitives": [
        {
          "attributes": {
            "NORMAL": 29,
            "POSITION": 28,
            "TEXCOORD_0": 30
          },
          "indices": 31,
          "material": 3,
          "mode": 4
        }
      ]
    },
    {
      "name": "Stereo textured mesh_Material3_0",
      "primitives": [
        {
          "attributes": {
            "NORMAL": 33,
            "POSITION": 32,
            "TEXCOORD_0": 34
          },
          "indices": 35,
          "material": 3,
          "mode": 4
        }
      ]
    }
  ],
  "nodes": [
    {
      "children": [
        1
      ],
      "matrix": [
        1.0,
        0.0,
        0.0,
        0.0,
        0.0,
        2.220446049250313e-16,
        -1.0,
        0.0,
        0.0,
        1.0,
        2.220446049250313e-16,
        0.0,
        0.0,
        0.0,
        0.0,
        1.0
      ],
      "name": "Sketchfab_model"
    },
    {
      "children": [
        2
      ],
      "matrix": [
        1.0,
        0.0,
        0.0,
        0.0,
        0.0,
        0.0,
        1.0,
        0.0,
        0.0,
        -1.0,
        0.0,
        0.0,
        0.0,
        0.0,
        0.0,
        1.0
      ],
      "name": "sketchfabTemp.obj.fbx"
    },
    {
      "children": [
        3
      ],
      "name": "RootNode"
    },
    {
      "children": [
        4,
        5,
        6,
        7,
        8,
        9,
        10,
        11,
        12
      ],
      "name": "Stereo textured mesh"
    },
    {
      "mesh": 0,
      "name": "Stereo textured mesh_Material0_0"
    },
    {
      "mesh": 1,
      "name": "Stereo textured mesh_Material0_0"
    },
    {
      "mesh": 2,
      "name": "Stereo textured mesh_Material1_0"
    },
    {
      "mesh": 3,
      "name": "Stereo textured mesh_Material1_0"
    },
    {
      "mesh": 4,
      "name": "Stereo textured mesh_Material2_0"
    },
    {
      "mesh": 5,
      "name": "Stereo textured mesh_Material2_0"
    },
    {
      "mesh": 6,
      "name": "Stereo textured mesh_Material3_0"
    },
    {
      "mesh": 7,
      "name": "Stereo textured mesh_Material3_0"
    },
    {
      "mesh": 8,
      "name": "Stereo textured mesh_Material3_0"
    }
  ],
  "samplers": [
    {
      "magFilter": 9729,
      "minFilter": 9987,
      "wrapS": 10497,
      "wrapT": 10497
    }
  ],
  "scene": 0,
  "scenes": [
    {
      "name": "Sketchfab_Scene",
      "nodes": [
        0
      ]
    }
  ],
  "textures": [
    {
      "sampler": 0,
      "source": 0
    },
    {
      "sampler": 0,
      "source": 1
    },
    {
      "sampler": 0,
      "source": 2
    },
    {
      "sampler": 0,
      "source": 3
    }
  ]
}
