{
	"asset":{
		"generator":"Khronos glTF Blender I/O v3.6.27",
		"version":"2.0"
	},
	"scene":0,
	"scenes":[
		{
			"name":"Scene",
			"nodes":[
				0,
				1
			]
		}
	],
	"nodes":[
		{
			"mesh":0,
			"name":"Plane.001",
			"scale":[
				6,
				6,
				6
			],
			"translation":[
				0,
				1.4486799240112305,
				0
			]
		},
		{
			"mesh":1,
			"name":"Plane",
			"scale":[
				3.799999952316284,
				3,
				3.799999952316284
			]
		}
	],
	"materials":[
		{
			"doubleSided":true,
			"name":"Material.001",
			"pbrMetallicRoughness":{
				"baseColorFactor":[
					0.05341397225856781,
					0.4833084046840668,
					0.8000000715255737,
					1
				],
				"metallicFactor":0,
				"roughnessFactor":0.5
			}
		},
		{
			"doubleSided":true,
			"name":"island_albedo",
			"pbrMetallicRoughness":{
				"baseColorTexture":{
					"index":0
				},
				"metallicFactor":0,
				"roughnessFactor":0.5
			}
		}
	],
	"meshes":[
		{
			"name":"Plane.001",
			"primitives":[
				{
					"attributes":{
						"POSITION":0,
						"NORMAL":1,
						"TEXCOORD_0":2
					},
					"indices":3,
					"material":0
				}
			]
		},
		{
			"name":"Plane",
			"primitives":[
				{
					"attributes":{
						"POSITION":4,
						"NORMAL":5,
						"TEXCOORD_0":6
					},
					"indices":7,
					"material":1
				}
			]
		}
	],
	"textures":[
		{
			"sampler":0,
			"source":0
		}
	],
	"images":[
		{
			"bufferView":8,
			"mimeType":"image/png",
			"name":"island texture"
		}
	],
	"accessors":[
		{
			"bufferView":0,
			"componentType":5126,
			"count":5766,
			"max":[
				1,
				0.03708846494555473,
				1
			],
			"min":[
				-1,
				-0.03361004218459129,
				-1
			],
			"type":"VEC3"
		},
		{
			"bufferView":1,
			"componentType":5126,
			"count":5766,
			"type":"VEC3"
		},
		{
			"bufferView":2,
			"componentType":5126,
			"count":5766,
			"type":"VEC2"
		},
		{
			"bufferView":3,
			"componentType":5123,
			"count":5766,
			"type":"SCALAR"
		},
		{
			"bufferView":4,
			"componentType":5126,
			"count":1324,
			"max":[
				1.118040680885315,
				0.6157606840133667,
				1.1891510486602783
			],
			"min":[
				-0.9972169399261475,
				-0.018780715763568878,
				-1.1296080350875854
			],
			"type":"VEC3"
		},
		{
			"bufferView":5,
			"componentType":5126,
			"count":1324,
			"type":"VEC3"
		},
		{
			"bufferView":6,
			"componentType":5126,
			"count":1324,
			"type":"VEC2"
		},
		{
			"bufferView":7,
			"componentType":5123,
			"count":2130,
			"type":"SCALAR"
		}
	],
	"bufferViews":[
		{
			"buffer":0,
			"byteLength":69192,
			"byteOffset":0,
			"target":34962
		},
		{
			"buffer":0,
			"byteLength":69192,
			"byteOffset":69192,
			"target":34962
		},
		{
			"buffer":0,
			"byteLength":46128,
			"byteOffset":138384,
			"target":34962
		},
		{
			"buffer":0,
			"byteLength":11532,
			"byteOffset":184512,
			"target":34963
		},
		{
			"buffer":0,
			"byteLength":15888,
			"byteOffset":196044,
			"target":34962
		},
		{
			"buffer":0,
			"byteLength":15888,
			"byteOffset":211932,
			"target":34962
		},
		{
			"buffer":0,
			"byteLength":10592,
			"byteOffset":227820,
			"target":34962
		},
		{
			"buffer":0,
			"byteLength":4260,
			"byteOffset":238412,
			"target":34963
		},
		{
			"buffer":0,
			"byteLength":118,
			"byteOffset":242672
		}
	],
	"samplers":[
		{
			"magFilter":9729,
			"minFilter":9987
		}
	],
	"buffers":[
		{
			"byteLength":242792,
			"uri":"data:application/octet-stream;base64,"
		}
	]
}
