{
  "accessors": [
    {
      "bufferView": 2,
      "componentType": 5126,
      "count": 65532,
      "max": [
        46.23577880859375,
        51.567665100097656,
        -7.253964900970459
      ],
      "min": [
        -32.468715667724609,
        -37.182529449462891,
        -20.616451263427734
      ],
      "type": "VEC3"
    },
    {
      "bufferView": 2,
      "byteOffset": 786384,
      "componentType": 5126,
      "count": 65532,
      "max": [
        0.99991500377655029,
        0.99988836050033569,
        0.99999809265136719
      ],
      "min": [
        -0.99996787309646606,
        -0.99974668025970459,
        -0.99960386753082275
      ],
      "type": "VEC3"
    },
    {
      "bufferView": 1,
      "componentType": 5126,
      "count": 65532,
      "max": [
        0.9919319748878479,
        0.99962502717971802
      ],
      "min": [
        0.00024799999664537609,
        0.0037539999466389418
      ],
      "type": "VEC2"
    },
    {
      "bufferView": 0,
      "componentType": 5125,
      "count": 335502,
      "max": [
        65531
      ],
      "min": [
        0
      ],
      "type": "SCALAR"
    },
    {
      "bufferView": 2,
      "byteOffset": 1572768,
      "componentType": 5126,
      "count": 65532,
      "max": [
        27.777902603149414,
        45.934799194335938,
        -12.147651672363281
      ],
      "min": [
        -33.298381805419922,
        -6.7787971496582031,
        -19.332096099853516
      ],
      "type": "VEC3"
    },
    {
      "bufferView": 2,
      "byteOffset": 2359152,
      "componentType": 5126,
      "count": 65532,
      "max": [
        0.99997568130493164,
        0.99988257884979248,
        0.99999803304672241
      ],
      "min": [
        -0.99988663196563721,
        -0.99980604648590088,
        -0.99775630235671997
      ],
      "type": "VEC3"
    },
    {
      "bufferView": 1,
      "byteOffset": 524256,
      "componentType": 5126,
      "count": 65532,
      "max": [
        0.9916350245475769,
        0.99906599521636963
      ],
      "min": [
        0.00061599997570738196,
        0.050804000347852707
      ],
      "type": "VEC2"
    },
    {
      "bufferView": 0,
      "byteOffset": 1342008,
      "componentType": 5125,
      "count": 316299,
      "max": [
        65531
      ],
      "min": [
        0
      ],
      "type": "SCALAR"
    },
    {
      "bufferView": 2,
      "byteOffset": 3145536,
      "componentType": 5126,
      "count": 65532,
      "max": [
        27.818445205688477,
        43.532211303710938,
        -12.472989082336426
      ],
      "min": [
        -40.955951690673828,
        -44.445167541503906,
        -18.4349365234375
      ],
      "type": "VEC3"
    },
    {
      "bufferView": 2,
      "byteOffset": 3931920,
      "componentType": 5126,
      "count": 65532,
      "max": [
        0.99673932790756226,
        0.99833410978317261,
        0.99999850988388062
      ],
      "min": [
        -0.99940919876098633,
        -0.99980604648590088,
        -0.99939179420471191
      ],
      "type": "VEC3"
    },
    {
      "bufferView": 1,
      "byteOffset": 1048512,
      "componentType": 5126,
      "count": 65532,
      "max": [
        0.99079102277755737,
        0.99926400184631348
      ],
      "min": [
        0.0017099999822676182,
        0.057544000446796417
      ],
      "type": "VEC2"
    },
    {
      "bufferView": 0,
      "byteOffset": 2607204,
      "componentType": 5125,
      "count": 309726,
      "max": [
        65531
      ],
      "min": [
        0
      ],
      "type": "SCALAR"
    },
    {
      "bufferView": 2,
      "byteOffset": 4718304,
      "componentType": 5126,
      "count": 65532,
      "max": [
        24.968469619750977,
        42.777442932128906,
        -6.8736939430236816
      ],
      "min": [
        -41.873756408691406,
        -52.355335235595703,
        -17.463527679443359
      ],
      "type": "VEC3"
    },
    {
      "bufferView": 2,
      "byteOffset": 5504688,
      "componentType": 5126,
      "count": 65532,
      "max": [
        0.99991792440414429,
        0.9998546838760376,
        0.99999940395355225
      ],
      "min": [
        -0.99997705221176147,
        -0.99999982118606567,
        -0.99808073043823242
      ],
      "type": "VEC3"
    },
    {
      "bufferView": 1,
      "byteOffset": 1572768,
      "componentType": 5126,
      "count": 65532,
      "max": [
        0.99479401111602783,
        0.99896502494812012
      ],
      "min": [
        0.0013030000263825059,
        0.003894000081345439
      ],
      "type": "VEC2"
    },
    {
      "bufferView": 0,
      "byteOffset": 3846108,
      "componentType": 5125,
      "count": 310632,
      "max": [
        65531
      ],
      "min": [
        0
      ],
      "type": "SCALAR"
    },
    {
      "bufferView": 2,
      "byteOffset": 6291072,
      "componentType": 5126,
      "count": 65533,
      "max": [
        29.667055130004883,
        41.043994903564453,
        -7.8998699188232422
      ],
      "min": [
        -41.762294769287109,
        -50.225948333740234,
        -17.063203811645508
      ],
      "type": "VEC3"
    },
    {
      "bufferView": 2,
      "byteOffset": 7077468,
      "componentType": 5126,
      "count": 65533,
      "max": [
        0.99987709522247314,
        0.99992185831069946,
        0.99999946355819702
      ],
      "min": [
        -0.99999427795410156,
        -0.99995511770248413,
        -0.99996685981750488
      ],
      "type": "VEC3"
    },
    {
      "bufferView": 1,
      "byteOffset": 2097024,
      "componentType": 5126,
      "count": 65533,
      "max": [
        0.99218100309371948,
        0.99841898679733276
      ],
      "min": [
        0.0012240000069141388,
        0.0039829998277127743
      ],
      "type": "VEC2"
    },
    {
      "bufferView": 0,
      "byteOffset": 5088636,
      "componentType": 5125,
      "count": 304572,
      "max": [
        65532
      ],
      "min": [
        0
      ],
      "type": "SCALAR"
    },
    {
      "bufferView": 2,
      "byteOffset": 7863864,
      "componentType": 5126,
      "count": 65532,
      "max": [
        48.924762725830078,
        41.529022216796875,
        -6.0401592254638672
      ],
      "min": [
        -34.480049133300781,
        -50.033519744873047,
        -16.422943115234375
      ],
      "type": "VEC3"
    },
    {
      "bufferView": 2,
      "byteOffset": 8650248,
      "componentType": 5126,
      "count": 65532,
      "max": [
        0.99998986721038818,
        0.99997532367706299,
        0.99999940395355225
      ],
      "min": [
        -0.99999850988388062,
        -0.99997460842132568,
        -0.99828636646270752
      ],
      "type": "VEC3"
    },
    {
      "bufferView": 1,
      "byteOffset": 2621288,
      "componentType": 5126,
      "count": 65532,
      "max": [
        0.9956200122833252,
        0.99909502267837524
      ],
      "min": [
        0.0012959999730810523,
        0.006039000116288662
      ],
      "type": "VEC2"
    },
    {
      "bufferView": 0,
      "byteOffset": 6306924,
      "componentType": 5125,
      "count": 307077,
      "max": [
        65531
      ],
      "min": [
        0
      ],
      "type": "SCALAR"
    },
    {
      "bufferView": 2,
      "byteOffset": 9436632,
      "componentType": 5126,
      "count": 65532,
      "max": [
        48.896507263183594,
        41.961948394775391,
        -6.2199440002441406
      ],
      "min": [
        -19.599517822265625,
        -46.546817779541016,
        -15.939755439758301
      ],
      "type": "VEC3"
    },
    {
      "bufferView": 2,
      "byteOffset": 10223016,
      "componentType": 5126,
      "count": 65532,
      "max": [
        0.99998486042022705,
        0.9999997615814209,
        0.99999922513961792
      ],
      "min": [
        -0.99999362230300903,
        -0.99995774030685425,
        -0.99806702136993408
      ],
      "type": "VEC3"
    },
    {
      "bufferView": 1,
      "byteOffset": 3145544,
      "componentType": 5126,
      "count": 65532,
      "max": [
        0.99247199296951294,
        0.99959897994995117
      ],
      "min": [
        0.00096099998336285353,
        0.011605000123381615
      ],
      "type": "VEC2"
    },
    {
      "bufferView": 0,
      "byteOffset": 7535232,
      "componentType": 5125,
      "count": 298773,
      "max": [
        65531
      ],
      "min": [
        0
      ],
      "type": "SCALAR"
    },
    {
      "bufferView": 2,
      "byteOffset": 11009400,
      "componentType": 5126,
      "count": 65532,
      "max": [
        48.583271026611328,
        44.341915130615234,
        -5.7904839515686035
      ],
      "min": [
        -11.19029712677002,
        -46.477462768554688,
        -15.493621826171875
      ],
      "type": "VEC3"
    },
    {
      "bufferView": 2,
      "byteOffset": 11795784,
      "componentType": 5126,
      "count": 65532,
      "max": [
        0.99998575448989868,
        0.99999010562896729,
        0.99999904632568359
      ],
      "min": [
        -0.99999320507049561,
        -0.99996286630630493,
        -0.99896067380905151
      ],
      "type": "VEC3"
    },
    {
      "bufferView": 1,
      "byteOffset": 3669800,
      "componentType": 5126,
      "count": 65532,
      "max": [
        0.99220001697540283,
        0.99934202432632446
      ],
      "min": [
        0.0007789999945089221,
        0.0084589999169111252
      ],
      "type": "VEC2"
    },
    {
      "bufferView": 0,
      "byteOffset": 8730324,
      "componentType": 5125,
      "count": 277818,
      "max": [
        65531
      ],
      "min": [
        0
      ],
      "type": "SCALAR"
    },
    {
      "bufferView": 2,
      "byteOffset": 12582168,
      "componentType": 5126,
      "count": 65532,
      "max": [
        48.303390502929688,
        43.8546142578125,
        -5.5033149719238281
      ],
      "min": [
        -0.18052700161933899,
        -44.643802642822266,
        -14.178047180175781
      ],
      "type": "VEC3"
    },
    {
      "bufferView": 2,
      "byteOffset": 13368552,
      "componentType": 5126,
      "count": 65532,
      "max": [
        0.99998795986175537,
        0.99999010562896729,
        0.99999141693115234
      ],
      "min": [
        -0.99999767541885376,
        -0.99977928400039673,
        -0.9996563196182251
      ],
      "type": "VEC3"
    },
    {
      "bufferView": 1,
      "byteOffset": 4194056,
      "componentType": 5126,
      "count": 65532,
      "max": [
        0.99466001987457275,
        0.99932897090911865
      ],
      "min": [
        0.0010689999908208847,
        0.0047539998777210712
      ],
      "type": "VEC2"
    },
    {
      "bufferView": 0,
      "byteOffset": 9841596,
      "componentType": 5125,
      "count": 275460,
      "max": [
        65531
      ],
      "min": [
        0
      ],
      "type": "SCALAR"
    },
    {
      "bufferView": 2,
      "byteOffset": 14154936,
      "componentType": 5126,
      "count": 65532,
      "max": [
        41.636207580566406,
        20.571142196655273,
        -4.8057990074157715
      ],
      "min": [
        5.0179848670959473,
        -44.522132873535156,
        -11.144003868103027
      ],
      "type": "VEC3"
    },
    {
      "bufferView": 2,
      "byteOffset": 14941320,
      "componentType": 5126,
      "count": 65532,
      "max": [
        0.99986350536346436,
        0.99997293949127197,
        0.99999904632568359
      ],
      "min": [
        -0.99999076128005981,
        -0.99949723482131958,
        -0.98886537551879883
      ],
      "type": "VEC3"
    },
    {
      "bufferView": 1,
      "byteOffset": 4718312,
      "componentType": 5126,
      "count": 65532,
      "max": [
        0.99510997533798218,
        0.99955099821090698
      ],
      "min": [
        0.0012009999481961131,
        0.055311001837253571
      ],
      "type": "VEC2"
    },
    {
      "bufferView": 0,
      "byteOffset": 10943436,
      "componentType": 5125,
      "count": 247488,
      "max": [
        65531
      ],
      "min": [
        0
      ],
      "type": "SCALAR"
    },
    {
      "bufferView": 2,
      "byteOffset": 15727704,
      "componentType": 5126,
      "count": 6206,
      "max": [
        48.171867370605469,
        42.066497802734375,
        -4.8057990074157715
      ],
      "min": [
        -31.047536849975586,
        -44.522132873535156,
        -17.358434677124023
      ],
      "type": "VEC3"
    },
    {
      "bufferView": 2,
      "byteOffset": 15802176,
      "componentType": 5126,
      "count": 6206,
      "max": [
        0.9999956488609314,
        0.99928689002990723,
        0.99998146295547485
      ],
      "min": [
        -0.99999117851257324,
        -0.98972851037979126,
        -0.98981136083602905
      ],
      "type": "VEC3"
    },
    {
      "bufferView": 1,
      "byteOffset": 5242568,
      "componentType": 5126,
      "count": 6206,
      "max": [
        0.99541401863098145,
        0.99995297193527222
      ],
      "min": [
        0.0014870000304654241,
        0.092197000980377197
      ],
      "type": "VEC2"
    },
    {
      "bufferView": 0,
      "byteOffset": 11933388,
      "componentType": 5125,
      "count": 16653,
      "max": [
        6205
      ],
      "min": [
        0
      ],
      "type": "SCALAR"
    }
  ],
  "asset": {
    "extras": {
      "author": "Faroe Islands National Museum (https://sketchfab.com/Savn)",
      "license": "CC0-1.0 (http://creativecommons.org/publicdomain/zero/1.0/)",
      "source": "https://sketchfab.com/3d-models/heimi-i-husi-koltur-faroe-islands-6ef2e32060e14a9dad92a508b638a310",
      "title": "Heimi í Húsi, Koltur, Faroe Islands"
    },
    "generator": "Sketchfab-7.80.0",
    "version": "2.0"
  },
  "bufferViews": [
    {
      "buffer": 0,
      "byteLength": 12000000,
      "byteOffset": 0,
      "name": "floatBufferViews",
      "target": 34963
    },
    {
      "buffer": 0,
      "byteLength": 5292216,
      "byteOffset": 12000000,
      "byteStride": 8,
      "name": "floatBufferViews",
      "target": 34962
    },
    {
      "buffer": 0,
      "byteLength": 15876648,
      "byteOffset": 17292216,
      "byteStride": 12,
      "name": "floatBufferViews",
      "target": 34962
    }
  ],
  "buffers": [
    {
      "byteLength": 33168864,
      "uri": "scene.bin"
    }
  ],
  "extensionsUsed": [
    "KHR_materials_unlit"
  ],
  "images": [
    {
      "uri": "textures/material_0_baseColor.jpeg"
    }
  ],
  "materials": [
    {
      "doubleSided": true,
      "emissiveFactor": [
        0,
        0,
        0
      ],
      "extensions": {
        "KHR_materials_unlit": {}
      },
      "name": "material_0",
      "pbrMetallicRoughness": {
        "baseColorFactor": [
          1,
          1,
          1,
          1
        ],
        "baseColorTexture": {
          "index": 0,
          "texCoord": 0
        },
        "metallicFactor": 0,
        "roughnessFactor": 1
      }
    }
  ],
  "meshes": [
    {
      "primitives": [
        {
          "attributes": {
            "NORMAL": 1,
            "POSITION": 0,
            "TEXCOORD_0": 2
          },
          "indices": 3,
          "material": 0,
          "mode": 4
        }
      ]
    },
    {
      "primitives": [
        {
          "attributes": {
            "NORMAL": 5,
            "POSITION": 4,
            "TEXCOORD_0": 6
          },
          "indices": 7,
          "material": 0,
          "mode": 4
        }
      ]
    },
    {
      "primitives": [
        {
          "attributes": {
            "NORMAL": 9,
            "POSITION": 8,
            "TEXCOORD_0": 10
          },
          "indices": 11,
          "material": 0,
          "mode": 4
        }
      ]
    },
    {
      "primitives": [
        {
          "attributes": {
            "NORMAL": 13,
            "POSITION": 12,
            "TEXCOORD_0": 14
          },
          "indices": 15,
          "material": 0,
          "mode": 4
        }
      ]
    },
    {
      "primitives": [
        {
          "attributes": {
            "NORMAL": 17,
            "POSITION": 16,
            "TEXCOORD_0": 18
          },
          "indices": 19,
          "material": 0,
          "mode": 4
        }
      ]
    },
    {
      "primitives": [
        {
          "attributes": {
            "NORMAL": 21,
            "POSITION": 20,
            "TEXCOORD_0": 22
          },
          "indices": 23,
          "material": 0,
          "mode": 4
        }
      ]
    },
    {
      "primitives": [
        {
          "attributes": {
            "NORMAL": 25,
            "POSITION": 24,
            "TEXCOORD_0": 26
          },
          "indices": 27,
          "material": 0,
          "mode": 4
        }
      ]
    },
    {
      "primitives": [
        {
          "attributes": {
            "NORMAL": 29,
            "POSITION": 28,
            "TEXCOORD_0": 30
          },
          "indices": 31,
          "material": 0,
          "mode": 4
        }
      ]
    },
    {
      "primitives": [
        {
          "attributes": {
            "NORMAL": 33,
            "POSITION": 32,
            "TEXCOORD_0": 34
          },
          "indices": 35,
          "material": 0,
          "mode": 4
        }
      ]
    },
    {
      "primitives": [
        {
          "attributes": {
            "NORMAL": 37,
            "POSITION": 36,
            "TEXCOORD_0": 38
          },
          "indices": 39,
          "material": 0,
          "mode": 4
        }
      ]
    },
    {
      "primitives": [
        {
          "attributes": {
            "NORMAL": 41,
            "POSITION": 40,
            "TEXCOORD_0": 42
          },
          "indices": 43,
          "material": 0,
          "mode": 4
        }
      ]
    }
  ],
  "nodes": [
    {
      "children": [
        1
      ],
      "name": "RootNode (gltf orientation matrix)",
      "rotation": [
        -0.70710678118654746,
        -0,
        -0,
        0.70710678118654757
      ]
    },
    {
      "children": [
        2
      ],
      "name": "RootNode (model correction matrix)"
    },
    {
      "children": [
        3,
        4,
        5,
        6,
        7,
        8,
        9,
        10,
        11,
        12,
        13
      ],
      "name": "model.obj.cleaner.gles"
    },
    {
      "mesh": 0,
      "name": ""
    },
    {
      "mesh": 1,
      "name": ""
    },
    {
      "mesh": 2,
      "name": ""
    },
    {
      "mesh": 3,
      "name": ""
    },
    {
      "mesh": 4,
      "name": ""
    },
    {
      "mesh": 5,
      "name": ""
    },
    {
      "mesh": 6,
      "name": ""
    },
    {
      "mesh": 7,
      "name": ""
    },
    {
      "mesh": 8,
      "name": ""
    },
    {
      "mesh": 9,
      "name": ""
    },
    {
      "mesh": 10,
      "name": ""
    }
  ],
  "samplers": [
    {
      "magFilter": 9729,
      "minFilter": 9987,
      "wrapS": 10497,
      "wrapT": 10497
    }
  ],
  "scene": 0,
  "scenes": [
    {
      "name": "OSG_Scene",
      "nodes": [
        0
      ]
    }
  ],
  "textures": [
    {
      "sampler": 0,
      "source": 0
    }
  ]
}

