{
  "accessors": [
    {
      "bufferView": 2,
      "componentType": 5126,
      "count": 41741,
      "max": [
        6.495200157165527,
        0.27320000529289246,
        5.999899864196777
      ],
      "min": [
        -5.411399841308594,
        -33.14910125732422,
        -5.826099872589111
      ],
      "type": "VEC3"
    },
    {
      "bufferView": 2,
      "byteOffset": 500892,
      "componentType": 5126,
      "count": 41741,
      "max": [
        0.9999991655349731,
        1.0,
        0.9999912977218628
      ],
      "min": [
        -0.9999945163726807,
        -0.999996542930603,
        -0.9999969005584717
      ],
      "type": "VEC3"
    },
    {
      "bufferView": 1,
      "componentType": 5126,
      "count": 41741,
      "max": [
        0.9959999918937683,
        0.9965999722480774
      ],
      "min": [
        0.0038999998942017555,
        0.0038999998942017555
      ],
      "type": "VEC2"
    },
    {
      "bufferView": 0,
      "componentType": 5125,
      "count": 224976,
      "type": "SCALAR"
    }
  ],
  "asset": {
    "extras": {
      "author": "604scans (https://sketchfab.com/604scans)",
      "license": "CC-BY-4.0 (http://creativecommons.org/licenses/by/4.0/)",
      "source": "https://sketchfab.com/3d-models/hawaiian-tiki-3dscan-022f006c8ef647818d754195f02cb61f",
      "title": "Hawaiian Tiki 3dscan"
    },
    "generator": "Sketchfab-12.66.0",
    "version": "2.0"
  },
  "bufferViews": [
    {
      "buffer": 0,
      "byteLength": 899904,
      "name": "floatBufferViews",
      "target": 34963
    },
    {
      "buffer": 0,
      "byteLength": 333928,
      "byteOffset": 899904,
      "byteStride": 8,
      "name": "floatBufferViews",
      "target": 34962
    },
    {
      "buffer": 0,
      "byteLength": 1001784,
      "byteOffset": 1233832,
      "byteStride": 12,
      "name": "floatBufferViews",
      "target": 34962
    }
  ],
  "buffers": [
    {
      "byteLength": 2235616,
      "uri": "scene.bin"
    }
  ],
  "images": [
    {
      "uri": "textures/Scene_-_Root_baseColor.jpeg"
    }
  ],
  "materials": [
    {
      "name": "Scene_-_Root",
      "pbrMetallicRoughness": {
        "baseColorTexture": {
          "index": 0
        },
        "metallicFactor": 0.0,
        "roughnessFactor": 0.6
      }
    }
  ],
  "meshes": [
    {
      "name": "Object_0",
      "primitives": [
        {
          "attributes": {
            "NORMAL": 1,
            "POSITION": 0,
            "TEXCOORD_0": 2
          },
          "indices": 3,
          "material": 0,
          "mode": 4
        }
      ]
    }
  ],
  "nodes": [
    {
      "children": [
        1
      ],
      "matrix": [
        1.0,
        0.0,
        0.0,
        0.0,
        0.0,
        -1.0,
        -3.834759027214593e-17,
        0.0,
        0.0,
        3.834759027214593e-17,
        -1.0,
        0.0,
        0.0,
        0.0,
        0.0,
        1.0
      ],
      "name": "Sketchfab_model"
    },
    {
      "children": [
        2
      ],
      "name": "7cb940a930b24faca8b64385687e5441.obj.cleaner"
    },
    {
      "mesh": 0,
      "name": "Object_2"
    }
  ],
  "samplers": [
    {
      "magFilter": 9729,
      "minFilter": 9987,
      "wrapS": 10497,
      "wrapT": 10497
    }
  ],
  "scene": 0,
  "scenes": [
    {
      "name": "Sketchfab_Scene",
      "nodes": [
        0
      ]
    }
  ],
  "textures": [
    {
      "sampler": 0,
      "source": 0
    }
  ]
}
